<svg version="1.1" xmlns="http://www.w3.org/2000/svg" viewBox="0 0 403.111083984375 349.77777099609375" width="403.111083984375" height="349.77777099609375"><!-- svg-source:excalidraw --><metadata><!-- payload-type:application/vnd.excalidraw+json --><!-- payload-version:2 --><!-- payload-start -->eyJ2ZXJzaW9uIjoiMSIsImVuY29kaW5nIjoiYnN0cmluZyIsImNvbXByZXNzZWQiOnRydWUsImVuY29kZWQiOiJ4nKVXbW/bNlx1MDAxMP6eX2FoXzuVPL7329JcdTAwMTVYXHUwMDBitChcdTAwMTagXHUwMDA1Nlx1MDAxNIViMbZmWVx1MDAxMiS6aVx1MDAxNuS/90h7ksXYlr3SgGHxjlx1MDAwZp/jPUedXHUwMDFmr2azxD00Nnk1S+z3eVZcdTAwMTZ5m90nL/z8N9t2RV2hXHTCc1dv2nnwXFw613SvXr7MmiZdXHUwMDE07rauV+m8Xm+X2dKubeU6dPxcdTAwMWKfZ7PH8I2WXCL3i91SfvrNXFxny69/vdPX/7xb//nH1yYsXHJO/7G5a63tuVx1MDAwNMt3nJaSp1prQyWhQoLojVx1MDAwZmhkQFPlXHUwMDA3MUZcdTAwMTLD1GC+L3K39C6cpZRSopnRfN9haYvF0vlYtTlcdTAwMDaSVYvScyP9TOfaemVf12Xdes6/UOs/XHUwMDAz5dtsvlq09abKe1x1MDAxZtdmVddkLVx1MDAxZdHgd1eU5Y17XGLoeM6YhSTa4/MuXHUwMDAwiOaPrcJNXHUwMDE3y8p2PlxytJ+tm2xeOH9WlFxmUXiGzds8ZOzLwKnN1vatT1m1Kct+uqhy6zORZGS0W5Xvdlx1MDAxYnl3mMSQNsM0I5L3hkFcXIzGk1x1MDAxZuoq6FxmmDZcdTAwMWO4XHUwMDFl9u5+R3W5XHUwMDAweZeVnVx1MDAxZFx1MDAwZdpcdTAwMTN4s6e8IY5Nk2fbJVQpycCgesCw3l5cdTAwMTbVKqZd1vPVgV2authcdTAwMTe2XHUwMDFmw6/ZoIvw0P/+8uKgNyMp+GFcYmGG7GnZj19Ryowx0MBcdTAwMTVRhFFcdTAwMTBTeFKlQlxiSVx1MDAxOFx1MDAwMcX2tVx1MDAxZPCYXHUwMDE56X5cboyiP6JcdE6NXHUwMDAxqiMwXHUwMDExXHUwMDE5p9BAXHUwMDFlrrpcdTAwMDAmjY9cdTAwMTQjNFqDPiNQxuSYjYpcbnZcdTAwMTKAgz96KpWRz0LjwYQ8NWrlLDpHrpQtXHUwMDFjSSVcdTAwMGUhueGU+yxPw4XMM8VcdDxPI5dcdTAwMTfTg+199uw6XHUwMDBieIxcdTAwMDd+IIyS4lxmdmCkv3+14EZcdTAwMTP+7PSonJZCnO7xeV2oXHUwMDA1amB/PdU+XHUwMDFjRZVcdTAwMDBcdTAwMDMhuZNcdTAwMDAqLEFXQqmKlVx1MDAwZSG1lFx1MDAwYkKNOKdcYimK8Xh4XGZSgoNcdTAwMTGBXGbVWfGxU/RQeb5cdTAwMGVcdTAwMTVcYnJm/iiLi+Un8fB9zDlnRlx1MDAxYVx1MDAwNVJEt1x1MDAxOFfh+C44PyCxXHUwMDAy9vHExemFLYWDxalEXHUwMDE07SSYglx1MDAxM+I309pXUbWNlpuL2YjjVzQloU9cdTAwMWG46p+5oynEwpiuy1N1QFx1MDAxNY/efdNleureoXrcXHUwMDE1TquWXHUwMDFj7Fwit8ylVzRcdTAwMTeakDNLdPQ6XHUwMDAyXHUwMDFhrnzFdzwnl9NcdTAwMTOiXHUwMDAwIFx1MDAxN5L5n2hXXHUwMDExatK02M1t8GvcTHXFelNiO/VxZ0arazdDh1RmnXtdr9eFw5bro2+Xdq1VcHi62m2R4D+HXHUwMDFihzho3f49wCa0yG+Kf0Pft2uktnPONjgn9qbe17l9U2W3ZdyiJd9cbnt/fbrnRsenQFx1MDAwMXvuXHUwMDEw3ePT1dNcdTAwMGaK7YS6In0=<!-- payload-end --></metadata><defs><style class="style-fonts">
      </style></defs><rect x="0" y="0" width="403.111083984375" height="349.77777099609375" fill="transparent"/><g transform="translate(30 99.33331298828125) rotate(0 171.5555419921875 75.55557250976562)" stroke="none"><path fill="#1e1e1e" d="M -1.87,-2.65 Q -1.87,-2.65 6.86,-8.71 15.60,-14.78 30.22,-22.54 44.84,-30.31 71.90,-39.52 98.97,-48.73 146.16,-55.46 193.35,-62.19 234.46,-61.71 275.57,-61.22 294.81,-59.98 314.05,-58.74 322.65,-57.15 331.24,-55.56 335.28,-51.88 339.33,-48.20 337.27,-43.80 335.21,-39.40 324.46,-31.81 313.72,-24.23 301.23,-18.06 288.74,-11.88 261.11,-2.34 233.48,7.20 217.97,12.50 202.45,17.80 189.77,22.59 177.08,27.38 166.43,32.69 155.77,38.00 150.94,40.27 146.10,42.55 145.80,42.66 145.50,42.76 145.18,42.80 144.86,42.83 144.55,42.78 144.23,42.74 143.93,42.62 143.64,42.50 143.38,42.31 143.12,42.12 142.91,41.88 142.71,41.64 142.56,41.35 142.42,41.07 142.35,40.75 142.28,40.44 142.29,40.12 142.30,39.80 142.38,39.49 142.46,39.19 142.62,38.91 142.77,38.63 142.99,38.39 143.20,38.16 143.47,37.98 143.74,37.81 150.38,39.73 157.03,41.66 171.10,45.81 185.17,49.96 203.28,56.62 221.38,63.28 236.65,72.07 251.92,80.86 258.93,85.64 265.94,90.41 269.50,94.79 273.06,99.18 270.92,106.77 268.78,114.37 248.60,132.35 228.42,150.34 214.01,160.91 199.60,171.48 188.91,179.27 178.23,187.06 166.46,194.50 154.69,201.95 143.50,207.95 132.32,213.95 127.60,216.48 122.88,219.01 122.48,219.15 122.08,219.29 121.65,219.29 121.23,219.29 120.82,219.16 120.42,219.03 120.08,218.77 119.74,218.51 119.50,218.16 119.26,217.81 119.14,217.40 119.03,216.99 119.05,216.57 119.07,216.15 119.23,215.75 119.38,215.35 119.65,215.03 119.93,214.70 120.29,214.48 120.65,214.26 121.07,214.17 121.48,214.08 121.91,214.12 122.33,214.16 122.72,214.34 123.10,214.52 123.41,214.81 123.72,215.10 123.92,215.47 124.12,215.85 124.19,216.27 124.27,216.69 124.20,217.11 124.13,217.53 123.93,217.90 123.74,218.28 123.43,218.57 123.12,218.87 122.74,219.05 122.35,219.23 121.93,219.27 121.51,219.32 121.09,219.23 120.68,219.14 120.31,218.93 119.95,218.71 119.67,218.39 119.39,218.06 119.23,217.67 119.07,217.27 119.05,216.85 119.03,216.43 119.14,216.02 119.25,215.61 119.49,215.25 119.72,214.90 120.06,214.64 120.40,214.38 120.40,214.38 120.40,214.38 125.12,211.85 129.84,209.32 140.86,203.41 151.88,197.51 163.51,190.16 175.13,182.81 185.81,175.03 196.49,167.24 210.72,156.82 224.94,146.39 244.47,129.41 263.99,112.42 266.30,106.28 268.60,100.13 265.77,97.44 262.94,94.74 256.11,90.08 249.29,85.43 234.42,76.83 219.55,68.23 201.61,61.63 183.68,55.04 169.47,50.85 155.26,46.66 150.68,44.61 146.10,42.55 145.80,42.66 145.50,42.76 145.18,42.80 144.86,42.83 144.55,42.78 144.23,42.74 143.93,42.62 143.64,42.50 143.38,42.31 143.12,42.12 142.91,41.88 142.71,41.64 142.56,41.35 142.42,41.07 142.35,40.75 142.28,40.44 142.29,40.12 142.30,39.80 142.38,39.49 142.46,39.19 142.62,38.91 142.77,38.63 142.99,38.39 143.20,38.16 143.47,37.98 143.74,37.81 148.57,35.52 153.40,33.23 164.30,27.81 175.19,22.38 187.95,17.55 200.71,12.71 216.21,7.39 231.71,2.07 259.00,-7.36 286.30,-16.80 298.43,-22.82 310.55,-28.83 320.43,-35.51 330.32,-42.18 330.22,-46.25 330.13,-50.32 321.92,-51.82 313.70,-53.31 294.60,-54.52 275.50,-55.72 234.82,-56.18 194.13,-56.65 147.47,-49.97 100.80,-43.30 74.21,-34.19 47.61,-25.09 33.38,-17.42 19.15,-9.75 10.51,-3.54 1.87,2.65 1.52,2.83 1.18,3.02 0.80,3.12 0.42,3.21 0.03,3.22 -0.35,3.22 -0.73,3.13 -1.11,3.04 -1.46,2.86 -1.81,2.69 -2.11,2.43 -2.40,2.17 -2.63,1.85 -2.85,1.53 -3.00,1.17 -3.14,0.81 -3.19,0.42 -3.24,0.03 -3.20,-0.35 -3.16,-0.74 -3.02,-1.11 -2.89,-1.47 -2.67,-1.80 -2.45,-2.12 -2.16,-2.39 -1.87,-2.65 -1.87,-2.65 L -1.87,-2.65 Z"/></g></svg>